{"title":"The Divergent Series Allegiant 2016 720p TC x264 AC3 TiTAN","uid":14696146,"size":2098528307,"categoryP":"video","categoryS":"movies","magnet":"?xt=urn:btih:077579419cbeb0957d6f57354f7b4178368ab07e&amp;dn=The+Divergent+Series+Allegiant+2016+720p+TC+x264+AC3+TiTAN&amp;tr=udp%3A%2F%2Ftracker.leechers-paradise.org%3A6969&amp;tr=udp%3A%2F%2Fzer0day.ch%3A1337&amp;tr=udp%3A%2F%2Fopen.demonii.com%3A1337&amp;tr=udp%3A%2F%2Ftracker.coppersurfer.tk%3A6969&amp;tr=udp%3A%2F%2Fexodus.desync.com%3A6969","seeders":9,"leechers":1,"uploader":"makintos13","files":2,"time":1464233887,"description":"The Divergent Series Allegiant 2016 720p TC x264 AC3 TiTAN\r\n\r\n \nhttps://imgmak.com/T0U\r\n \nhttps://imgmak.com/T03\r\n \nhttps://imgmak.com/T0G\r\n \nhttps://imgmak.com/T0H\r\n \nhttps://imgmak.com/T0v\r\n \nhttps://imgmak.com/T0y\r\n \nhttps://imgmak.com/T06\r\n\r\n\r\n \nhttp://www.imdb.com/title/tt3410834/\r\n\r\nSource: CHN-TC\r\n\r\nGeneral\r\n\r\nFormat                                   : Matroska\r\nFormat version                           : Version 2\r\nFile size                                : 1.95 GiB\r\nDuration                                 : 2h 0mn\r\nOverall bit rate mode                    : Variable\r\nOverall bit rate                         : 2 323 Kbps\r\n\r\nVideo\r\nID                                       : 1\r\nFormat                                   : AVC\r\nFormat/Info                              : Advanced Video Codec\r\nFormat profile                           :   \r\nFormat settings, CABAC                   : Yes\r\nFormat settings, ReFrames                : 3 frames\r\nCodec ID                                 : V_MPEG4/ISO/AVC\r\nDuration                                 : 2h 0mn\r\nBit rate mode                            : Variable\r\nBit rate                                 : 2 052 Kbps\r\nMaximum bit rate                         : 40.0 Mbps\r\nWidth                                    : 1 264 pixels\r\nHeight                                   : 512 pixels\r\nDisplay aspect ratio                     : 2.469\r\nFrame rate mode                          : Constant\r\nFrame rate                               : 25.000 fps\r\nColor space                              : YUV\r\nChroma subsampling                       : 4:2:0\r\nBit depth                                : 8 bits\r\nScan type                                : Progressive\r\nBits/(Pixel*Frame)                       : 0.127\r\nStream size                              : 1.73 GiB (88%)\r\nDefault                                  : Yes\r\nForced                                   : No\r\nColor primaries                          : BT.709\r\nTransfer characteristics                 : BT.709\r\nMatrix coefficients                      : BT.709\r\n\r\nAudio\r\nID                                       : 2\r\nFormat                                   : AC-3\r\nFormat/Info                              : Audio Coding 3\r\nMode extension                           : CM (complete main)\r\nFormat settings, Endianness              : Big\r\nCodec ID                                 : A_AC3\r\nDuration                                 : 2h 0mn\r\nBit rate mode                            : Constant\r\nBit rate                                 : 224 Kbps\r\nChannel(s)                               : 6 channels\r\nChannel positions                        : Front: L C R, Side: L R, LFE\r\nSampling rate                            : 48.0 KHz\r\nBit depth                                : 16 bits\r\nCompression mode                         : Lossy\r\nStream size                              : 193 MiB (10%)\r\nDefault                                  : Yes","torrent":{"xt":"urn:btih:077579419cbeb0957d6f57354f7b4178368ab07e","amp;dn":"The+Divergent+Series+Allegiant+2016+720p+TC+x264+AC3+TiTAN","amp;tr":["udp%3A%2F%2Ftracker.leechers-paradise.org%3A6969","udp%3A%2F%2Fzer0day.ch%3A1337","udp%3A%2F%2Fopen.demonii.com%3A1337","udp%3A%2F%2Ftracker.coppersurfer.tk%3A6969","udp%3A%2F%2Fexodus.desync.com%3A6969"],"infoHash":"077579419cbeb0957d6f57354f7b4178368ab07e","infoHashBuffer":{"type":"Buffer","data":[7,117,121,65,156,190,176,149,125,111,87,53,79,123,65,120,54,138,176,126]},"announce":[],"urlList":[]}}